<svg xmlns="http://www.w3.org/2000/svg" xmlns:xlink="http://www.w3.org/1999/xlink" width="500" zoomAndPan="magnify" viewBox="0 0 375 374.999991" height="500" preserveAspectRatio="xMidYMid meet" version="1.0"><defs><clipPath id="965d6a780a"><path d="M 0 28.976562 L 373 28.976562 L 373 346 L 0 346 Z M 0 28.976562 " clip-rule="nonzero"/></clipPath></defs><g clip-path="url(#965d6a780a)"><path fill="#451c0d" d="M 203.78125 75.851562 C 209.207031 66.703125 218.917969 59.84375 235.484375 66.417969 C 248.910156 71.5625 256.621094 74.136719 263.191406 75.277344 C 269.472656 76.421875 275.757812 76.421875 286.324219 76.421875 C 288.039062 76.421875 289.753906 76.707031 291.464844 76.992188 C 301.175781 78.421875 309.746094 84.140625 315.457031 94.429688 C 320.886719 103.859375 324.3125 117.292969 324.3125 134.441406 C 324.3125 141.585938 323.742188 149.875 322.3125 159.019531 C 323.742188 163.59375 324.597656 169.308594 324.597656 176.167969 C 332.308594 180.742188 348.589844 193.605469 348.304688 223.898438 C 350.019531 224.1875 351.445312 224.757812 352.589844 225.042969 C 358.300781 227.042969 363.726562 228.472656 367.726562 229.332031 C 370.867188 230.1875 372.867188 233.332031 372.011719 236.761719 C 371.152344 240.476562 369.441406 243.90625 367.15625 247.050781 C 359.445312 257.339844 344.304688 263.054688 327.453125 265.058594 C 324.882812 265.34375 322.3125 265.628906 320.027344 265.628906 C 319.457031 271.34375 317.457031 279.347656 311.171875 287.921875 C 306.316406 293.925781 300.035156 297.640625 293.179688 299.355469 C 286.894531 328.792969 276.042969 333.9375 271.472656 334.792969 C 246.625 341.652344 216.347656 345.082031 186.359375 345.082031 C 156.367188 345.082031 126.089844 341.652344 101.242188 334.792969 C 96.671875 333.9375 85.820312 328.792969 79.535156 299.355469 C 72.679688 297.640625 66.398438 293.925781 61.542969 287.921875 C 55.257812 279.347656 53.257812 271.34375 52.6875 265.628906 C 50.402344 265.628906 47.832031 265.34375 45.261719 265.058594 C 28.410156 263.054688 13.269531 257.339844 5.558594 247.050781 C 3.273438 243.90625 1.5625 240.476562 0.703125 236.761719 C -0.152344 233.332031 1.847656 230.1875 4.988281 229.332031 C 8.988281 228.472656 14.414062 227.042969 20.125 225.042969 C 21.269531 224.757812 22.695312 224.1875 24.410156 223.898438 C 24.125 193.605469 40.40625 180.742188 48.117188 176.167969 C 48.117188 175.027344 48.117188 173.597656 48.117188 172.453125 C 48.402344 170.453125 48.402344 168.738281 48.6875 167.023438 C 47.832031 165.878906 47.261719 164.738281 46.6875 163.878906 C 42.117188 156.164062 41.261719 147.304688 45.832031 139.300781 C 43.832031 135.300781 42.117188 130.152344 40.691406 124.4375 C 38.976562 116.433594 37.835938 107.289062 37.835938 99.574219 C 37.835938 92.714844 38.976562 86.710938 41.546875 82.136719 C 43.546875 78.421875 46.402344 75.5625 49.832031 73.5625 C 53.257812 71.5625 56.972656 70.417969 61.253906 70.417969 C 66.109375 70.132812 71.539062 71.5625 77.25 74.707031 C 78.964844 75.851562 80.964844 76.992188 82.390625 78.421875 C 83.25 77.851562 84.105469 77.277344 84.960938 76.992188 C 84.105469 68.703125 83.820312 51.554688 94.101562 37.835938 C 96.386719 34.695312 99.242188 32.121094 102.671875 30.691406 C 106.097656 29.261719 109.8125 28.691406 113.523438 28.976562 C 122.09375 30.121094 129.234375 32.980469 135.515625 37.265625 C 144.65625 34.980469 172.363281 29.835938 189.5 47.839844 C 191.5 50.128906 193.496094 52.699219 195.496094 55.558594 C 199.210938 61.273438 202.066406 68.132812 203.78125 75.851562 Z M 203.78125 75.851562 " fill-opacity="1" fill-rule="nonzero"/></g><path fill="#f1ad66" d="M 74.679688 168.738281 C 87.53125 171.023438 104.097656 165.59375 119.523438 145.015625 C 128.089844 133.585938 130.660156 119.007812 128.375 107.003906 C 126.664062 97 120.949219 86.996094 111.238281 84.140625 C 106.382812 82.996094 100.671875 83.28125 94.101562 85.855469 L 90.390625 87.855469 C 94.386719 94.429688 96.386719 102.144531 97.242188 110.433594 C 97.816406 115.863281 98.671875 123.292969 96.957031 130.441406 C 101.8125 125.582031 104.097656 119.292969 104.097656 111.863281 C 104.097656 108.71875 106.667969 105.859375 110.097656 105.859375 C 113.238281 105.859375 116.09375 108.433594 116.09375 111.863281 C 116.378906 127.296875 108.382812 139.871094 95.246094 146.445312 C 82.960938 152.734375 67.824219 153.019531 55.257812 147.589844 C 53.257812 154.449219 58.113281 160.734375 63.828125 164.453125 C 66.683594 166.453125 70.394531 168.167969 74.679688 168.738281 Z M 74.679688 168.738281 " fill-opacity="1" fill-rule="evenodd"/><path fill="#cc774a" d="M 74.679688 168.738281 C 83.25 170.167969 93.246094 168.453125 103.8125 161.023438 C 84.960938 170.738281 67.824219 162.164062 80.964844 153.304688 C 65.253906 154.734375 55.257812 147.589844 55.257812 147.589844 C 53.257812 154.449219 58.113281 160.734375 63.828125 164.453125 C 66.683594 166.453125 70.394531 168.167969 74.679688 168.738281 Z M 74.679688 168.738281 " fill-opacity="1" fill-rule="evenodd"/><path fill="#cc774a" d="M 128.089844 125.867188 C 129.519531 119.292969 129.519531 112.71875 128.375 107.003906 C 126.664062 97 120.949219 86.996094 111.238281 84.140625 C 106.382812 82.996094 100.671875 83.28125 94.101562 85.855469 L 90.390625 87.855469 C 94.386719 94.429688 96.386719 102.144531 97.242188 110.433594 C 97.816406 115.863281 98.671875 123.292969 96.957031 130.441406 C 101.8125 125.582031 104.097656 119.292969 104.097656 111.863281 C 104.097656 108.71875 106.667969 105.859375 110.097656 105.859375 C 113.238281 105.859375 116.09375 108.433594 116.09375 111.863281 C 116.09375 111.863281 117.238281 114.148438 116.953125 118.148438 C 122.664062 108.71875 129.234375 110.433594 128.089844 125.867188 Z M 128.089844 125.867188 " fill-opacity="1" fill-rule="evenodd"/><path fill="#f1ad66" d="M 85.246094 111.863281 C 84.105469 101.574219 80.390625 90.140625 71.539062 85.28125 C 58.398438 78.136719 49.546875 84.425781 49.832031 99.285156 C 50.6875 152.449219 89.246094 150.734375 85.246094 111.863281 Z M 85.246094 111.863281 " fill-opacity="1" fill-rule="evenodd"/><path fill="#cc774a" d="M 82.390625 118.722656 C 74.964844 134.726562 54.113281 123.582031 51.542969 98.429688 C 49.832031 105.859375 51.257812 114.433594 51.542969 115.863281 C 56.6875 140.730469 72.679688 145.589844 80.679688 134.726562 C 80.964844 134.441406 82.675781 127.582031 82.390625 118.722656 Z M 82.390625 118.722656 " fill-opacity="1" fill-rule="evenodd"/><path fill="#cc774a" d="M 129.234375 152.160156 C 110.667969 177.027344 89.246094 183.601562 72.679688 180.742188 C 68.109375 179.886719 63.828125 178.457031 60.113281 176.457031 L 59.828125 180.457031 C 59.828125 180.742188 57.542969 199.320312 77.535156 217.328125 C 79.535156 196.460938 98.671875 181.3125 119.523438 184.742188 C 118.09375 164.453125 133.230469 147.015625 153.511719 145.589844 C 152.652344 132.726562 146.371094 125.296875 140.945312 121.578125 C 140.085938 132.15625 136.089844 143.015625 129.234375 152.160156 Z M 129.234375 152.160156 " fill-opacity="1" fill-rule="evenodd"/><path fill="#f1ad66" d="M 149.511719 113.003906 C 155.511719 117.578125 161.792969 125.007812 164.363281 136.726562 C 180.644531 124.152344 190.925781 109.003906 192.640625 92.714844 C 194.070312 78.707031 189.214844 64.988281 180.644531 56.128906 C 171.21875 45.839844 156.082031 45.839844 146.085938 47.269531 C 153.511719 56.699219 157.796875 68.417969 158.9375 79.851562 C 160.652344 75.5625 162.078125 71.277344 162.652344 66.417969 C 162.9375 63.273438 165.792969 60.703125 169.21875 61.273438 C 172.363281 61.558594 174.933594 64.417969 174.363281 67.847656 C 172.078125 88.996094 156.082031 106.433594 149.511719 113.003906 Z M 149.511719 113.003906 " fill-opacity="1" fill-rule="evenodd"/><path fill="#cc774a" d="M 149.511719 113.003906 C 155.511719 117.578125 161.792969 125.007812 164.363281 136.726562 C 173.789062 129.296875 181.214844 121.292969 186.070312 112.433594 C 176.644531 129.296875 164.648438 118.148438 161.507812 112.433594 C 160.082031 109.574219 160.082031 106.144531 160.652344 103.289062 C 154.9375 109.574219 149.511719 113.003906 149.511719 113.003906 Z M 149.511719 113.003906 " fill-opacity="1" fill-rule="evenodd"/><path fill="#cc774a" d="M 189.5 105.859375 C 190.925781 101.574219 192.070312 97 192.640625 92.714844 C 194.070312 78.707031 189.214844 64.988281 180.644531 56.128906 C 171.21875 45.839844 156.082031 45.839844 146.085938 47.269531 C 153.511719 56.699219 157.796875 68.417969 158.9375 79.851562 C 160.652344 75.5625 162.078125 71.277344 162.652344 66.417969 C 162.9375 63.273438 165.792969 60.703125 169.21875 61.273438 C 172.363281 61.558594 174.933594 64.417969 174.363281 67.847656 C 174.363281 67.847656 175.503906 71.5625 174.363281 77.851562 C 175.789062 76.421875 177.21875 75.277344 178.929688 75.277344 C 183.5 74.707031 195.496094 84.425781 189.5 105.859375 Z M 189.5 105.859375 " fill-opacity="1" fill-rule="evenodd"/><path fill="#f1ad66" d="M 140.085938 103.574219 C 157.511719 89.570312 142.085938 44.410156 112.382812 40.980469 C 108.667969 40.695312 105.8125 42.125 103.8125 44.695312 C 96.957031 54.128906 96.386719 65.273438 96.671875 72.421875 C 119.238281 67.277344 135.515625 82.136719 140.085938 103.574219 Z M 140.085938 103.574219 " fill-opacity="1" fill-rule="evenodd"/><path fill="#cc774a" d="M 140.65625 68.132812 C 140.371094 70.132812 139.230469 72.132812 136.660156 72.992188 C 130.660156 75.277344 103.527344 69.847656 103.8125 49.839844 C 98.101562 58.414062 96.671875 72.421875 96.671875 72.421875 C 119.238281 67.277344 135.515625 82.136719 140.085938 103.574219 C 147.511719 95 145.515625 79.566406 140.65625 68.132812 Z M 140.65625 68.132812 " fill-opacity="1" fill-rule="evenodd"/><path fill="#f1ad66" d="M 201.78125 107.003906 C 196.355469 123.007812 184.644531 136.726562 169.21875 148.160156 C 176.933594 151.019531 183.5 156.734375 187.5 163.878906 C 207.492188 148.445312 221.488281 127.867188 201.78125 107.003906 Z M 201.78125 107.003906 " fill-opacity="1" fill-rule="evenodd"/><path fill="#cc774a" d="M 198.640625 119.007812 C 206.066406 115.578125 211.777344 127.011719 210.0625 135.871094 C 212.921875 126.4375 210.921875 116.722656 201.78125 107.003906 C 201.78125 107.003906 202.066406 111.003906 198.640625 119.007812 Z M 198.640625 119.007812 " fill-opacity="1" fill-rule="evenodd"/><path fill="#cc774a" d="M 169.21875 148.160156 C 176.933594 151.019531 183.5 156.734375 187.5 163.878906 C 196.640625 157.019531 204.351562 148.730469 208.351562 140.15625 C 200.636719 149.019531 196.925781 151.304688 194.640625 152.160156 C 190.070312 153.589844 179.789062 149.019531 184.359375 137.300781 C 176.933594 143.585938 169.21875 148.160156 169.21875 148.160156 Z M 169.21875 148.160156 " fill-opacity="1" fill-rule="evenodd"/><path fill="#ffffff" d="M 88.390625 239.335938 C 59.257812 223.613281 50.972656 203.035156 48.6875 190.460938 C 43.261719 195.320312 37.261719 204.179688 36.40625 219.898438 C 38.976562 219.328125 41.261719 218.46875 43.546875 217.613281 C 46.6875 216.753906 49.832031 218.46875 50.972656 221.613281 C 52.117188 224.757812 50.402344 228.1875 47.261719 229.042969 C 43.261719 230.472656 38.121094 232.1875 32.40625 233.902344 L 23.554688 236.761719 C 20.410156 237.621094 17.554688 238.476562 14.699219 239.335938 C 22.410156 250.195312 43.261719 253.625 58.96875 253.910156 C 64.113281 254.195312 69.253906 253.910156 74.394531 253.339844 C 74.679688 253.339844 74.679688 253.339844 74.679688 253.339844 C 84.390625 252.765625 96.386719 250.195312 105.242188 246.765625 C 99.527344 244.480469 93.816406 242.191406 88.390625 239.335938 Z M 88.390625 239.335938 " fill-opacity="1" fill-rule="evenodd"/><path fill="#ffffff" d="M 251.195312 251.910156 C 210.0625 263.34375 162.652344 263.34375 121.523438 251.910156 C 118.09375 254.195312 113.808594 256.484375 109.238281 258.199219 C 125.234375 261.628906 138.660156 266.484375 150.65625 273.058594 C 172.363281 284.777344 200.351562 284.777344 222.058594 273.058594 C 234.054688 266.484375 247.480469 261.628906 263.476562 258.199219 C 258.90625 256.484375 254.621094 254.195312 251.195312 251.910156 Z M 251.195312 251.910156 " fill-opacity="1" fill-rule="evenodd"/><path fill="#d9d3d0" d="M 160.652344 259.054688 C 147.226562 257.910156 134.089844 255.339844 121.523438 251.910156 C 118.09375 254.195312 113.808594 256.484375 109.238281 258.199219 C 122.09375 259.339844 135.230469 263.054688 147.226562 268.199219 C 143.230469 262.484375 148.371094 259.339844 160.652344 259.054688 Z M 160.652344 259.054688 " fill-opacity="1" fill-rule="evenodd"/><path fill="#ffffff" d="M 267.472656 246.765625 C 276.328125 250.195312 288.324219 252.765625 298.035156 253.339844 C 307.746094 254.195312 316.316406 254.195312 326.027344 253.054688 C 340.019531 251.339844 352.589844 247.050781 358.015625 239.335938 L 340.59375 233.902344 C 340.59375 233.902344 340.308594 233.902344 340.308594 233.902344 C 334.59375 232.1875 329.453125 230.472656 325.453125 229.042969 C 322.3125 228.1875 320.597656 224.757812 321.742188 221.613281 C 322.882812 218.46875 326.027344 216.753906 329.453125 217.613281 C 331.453125 218.46875 333.738281 219.328125 336.308594 219.898438 C 335.453125 204.179688 329.453125 195.320312 324.027344 190.460938 C 321.742188 203.035156 313.457031 223.613281 284.324219 239.335938 C 278.898438 242.191406 273.1875 244.480469 267.472656 246.765625 Z M 267.472656 246.765625 " fill-opacity="1" fill-rule="evenodd"/><path fill="#d9d3d0" d="M 267.472656 246.765625 C 276.328125 250.195312 288.324219 252.765625 298.035156 253.339844 C 307.746094 254.195312 316.316406 254.195312 326.027344 253.054688 C 328.023438 252.765625 330.023438 252.480469 332.023438 252.195312 C 295.75 253.910156 291.75 237.90625 321.457031 222.757812 C 321.457031 222.472656 321.457031 221.898438 321.742188 221.613281 C 322.882812 218.46875 326.027344 216.753906 329.453125 217.613281 C 331.453125 218.46875 333.738281 219.328125 336.308594 219.898438 C 336.308594 219.898438 333.453125 201.320312 322.882812 195.890625 C 319.171875 208.464844 309.746094 225.902344 284.324219 239.335938 C 278.898438 242.191406 273.1875 244.480469 267.472656 246.765625 Z M 267.472656 246.765625 " fill-opacity="1" fill-rule="evenodd"/><path fill="#efcaa3" d="M 250.90625 239.621094 C 260.332031 236.761719 269.757812 233.332031 278.613281 228.472656 C 305.746094 214.183594 311.460938 195.605469 312.601562 186.171875 C 307.460938 183.027344 298.035156 182.171875 292.039062 183.886719 C 274.042969 189.316406 260.046875 190.460938 249.195312 191.03125 C 227.773438 192.746094 221.488281 193.320312 222.632812 245.621094 C 231.199219 244.480469 240.625 242.476562 250.335938 239.90625 C 250.621094 239.621094 250.90625 239.621094 250.90625 239.621094 Z M 250.90625 239.621094 " fill-opacity="1" fill-rule="evenodd"/><path fill="#bd9c79" d="M 250.90625 239.621094 C 260.332031 236.761719 269.757812 233.332031 278.613281 228.472656 C 305.746094 214.183594 311.460938 195.605469 312.601562 186.171875 C 312.601562 186.171875 298.320312 184.171875 283.46875 190.460938 C 305.175781 205.324219 253.476562 240.761719 222.632812 245.621094 C 231.199219 244.480469 240.625 242.476562 250.335938 239.90625 C 250.621094 239.621094 250.90625 239.621094 250.90625 239.621094 Z M 250.90625 239.621094 " fill-opacity="1" fill-rule="evenodd"/><path fill="#f1ad66" d="M 210.636719 247.050781 C 208.921875 181.886719 217.488281 181.3125 248.335938 179.027344 C 258.621094 178.457031 272.042969 177.3125 288.609375 172.453125 C 295.75 170.167969 305.175781 170.738281 312.601562 173.027344 C 311.746094 159.878906 307.460938 155.589844 301.175781 155.589844 C 295.75 155.589844 288.609375 157.59375 281.183594 159.878906 C 276.898438 161.023438 272.613281 162.449219 268.617188 163.308594 C 249.480469 167.882812 234.628906 167.59375 222.917969 167.308594 C 198.355469 166.738281 192.640625 166.738281 192.355469 248.195312 C 196.640625 248.195312 203.210938 247.910156 210.636719 247.050781 Z M 210.636719 247.050781 " fill-opacity="1" fill-rule="evenodd"/><path fill="#cc774a" d="M 210.636719 247.050781 C 210.636719 237.046875 210.351562 228.757812 210.636719 221.328125 L 210.636719 221.613281 C 210.0625 231.332031 205.78125 239.335938 199.496094 234.1875 C 197.210938 231.902344 195.78125 226.757812 194.925781 221.042969 C 193.210938 235.332031 192.355469 248.195312 192.355469 248.195312 C 196.640625 248.195312 203.210938 247.910156 210.636719 247.050781 Z M 210.636719 247.050781 " fill-opacity="1" fill-rule="evenodd"/><path fill="#cc774a" d="M 235.484375 180.457031 C 239.484375 179.886719 243.480469 179.597656 248.335938 179.027344 C 258.621094 178.457031 272.042969 177.3125 288.609375 172.453125 C 295.75 170.167969 305.175781 170.738281 312.601562 173.027344 C 311.746094 159.878906 307.460938 155.589844 301.175781 155.589844 C 295.75 155.589844 288.609375 157.59375 281.183594 159.878906 C 276.898438 161.023438 272.613281 162.449219 268.617188 163.308594 C 249.480469 167.882812 234.628906 167.59375 222.917969 167.308594 L 222.058594 167.308594 C 239.769531 167.59375 259.191406 170.453125 235.484375 180.457031 Z M 235.484375 180.457031 " fill-opacity="1" fill-rule="evenodd"/><path fill="#efcaa3" d="M 173.789062 240.191406 C 187.5 226.1875 178.644531 202.179688 158.367188 201.605469 C 155.226562 201.320312 151.796875 202.179688 148.941406 203.320312 L 146.65625 204.464844 C 152.367188 216.46875 151.226562 230.757812 143.515625 241.90625 C 152.652344 249.050781 165.792969 248.195312 173.789062 240.191406 Z M 173.789062 240.191406 " fill-opacity="1" fill-rule="evenodd"/><path fill="#bd9c79" d="M 173.789062 240.191406 C 177.503906 236.476562 179.503906 232.1875 180.074219 227.902344 C 170.933594 244.191406 152.941406 232.761719 150.082031 217.328125 C 150.941406 225.902344 148.65625 234.476562 143.515625 241.90625 C 152.652344 249.050781 165.792969 248.195312 173.789062 240.191406 Z M 173.789062 240.191406 " fill-opacity="1" fill-rule="evenodd"/><path fill="#efcaa3" d="M 127.234375 241.050781 C 140.085938 232.761719 142.085938 214.46875 131.234375 203.320312 C 121.523438 193.890625 106.097656 193.890625 96.386719 203.320312 C 90.675781 209.324219 88.105469 217.898438 89.816406 226.1875 C 91.246094 227.042969 92.675781 227.902344 94.101562 228.472656 C 102.957031 233.332031 112.382812 236.761719 121.808594 239.621094 Z M 127.234375 241.050781 " fill-opacity="1" fill-rule="evenodd"/><path fill="#bd9c79" d="M 135.230469 225.613281 C 126.949219 234.761719 105.242188 226.757812 100.101562 216.753906 C 94.386719 204.75 104.671875 198.175781 104.957031 197.890625 C 101.8125 199.035156 98.957031 201.035156 96.386719 203.320312 C 90.675781 209.324219 88.105469 217.898438 89.816406 226.1875 C 91.246094 227.042969 92.675781 227.902344 94.101562 228.472656 C 102.957031 233.332031 112.382812 236.761719 121.808594 239.621094 L 127.234375 241.050781 C 127.234375 241.050781 134.089844 235.046875 135.230469 225.613281 Z M 135.230469 225.613281 " fill-opacity="1" fill-rule="evenodd"/><path fill="#efcaa3" d="M 139.800781 194.460938 C 151.226562 187.601562 165.507812 187.886719 176.644531 195.035156 C 182.644531 185.316406 181.214844 172.738281 173.21875 164.738281 C 163.507812 155.304688 148.085938 155.304688 138.660156 164.738281 C 132.375 171.023438 129.804688 180.457031 132.375 189.03125 C 135.230469 190.460938 137.800781 192.460938 139.800781 194.460938 Z M 139.800781 194.460938 " fill-opacity="1" fill-rule="evenodd"/><path fill="#bd9c79" d="M 139.800781 194.460938 C 151.226562 187.601562 165.507812 187.886719 176.644531 195.035156 C 176.644531 195.035156 179.21875 189.03125 178.644531 181.886719 C 171.503906 190.746094 135.230469 177.882812 142.941406 164.164062 C 130.375 172.167969 132.375 189.03125 132.375 189.03125 C 135.230469 190.460938 137.800781 192.460938 139.800781 194.460938 Z M 139.800781 194.460938 " fill-opacity="1" fill-rule="evenodd"/><path fill="#efcaa3" d="M 223.203125 155.304688 C 230.628906 155.304688 239.484375 155.589844 249.765625 154.449219 L 258.332031 147.589844 L 246.335938 132.15625 L 216.632812 155.304688 C 218.917969 155.304688 220.917969 155.304688 223.203125 155.304688 Z M 223.203125 155.304688 " fill-opacity="1" fill-rule="evenodd"/><path fill="#efcaa3" d="M 255.761719 124.722656 L 267.757812 140.15625 L 280.613281 129.867188 L 268.617188 114.71875 Z M 255.761719 124.722656 " fill-opacity="1" fill-rule="evenodd"/><path fill="#efcaa3" d="M 278.042969 107.289062 L 290.039062 122.4375 L 308.601562 107.859375 C 306.316406 101.574219 302.890625 95.570312 297.75 91.855469 Z M 278.042969 107.289062 " fill-opacity="1" fill-rule="evenodd"/><path fill="#efcaa3" d="M 311.460938 121.007812 L 297.464844 131.871094 L 307.175781 144.160156 C 308.601562 144.445312 310.316406 145.015625 311.746094 145.589844 C 312.316406 137.300781 312.316406 128.726562 311.460938 121.007812 Z M 311.460938 121.007812 " fill-opacity="1" fill-rule="evenodd"/><path fill="#efcaa3" d="M 292.039062 144.730469 L 288.039062 139.300781 L 276.328125 148.730469 C 281.46875 147.304688 287.179688 145.589844 292.039062 144.730469 Z M 292.039062 144.730469 " fill-opacity="1" fill-rule="evenodd"/><path fill="#efcaa3" d="M 248.335938 115.292969 L 261.191406 105.289062 L 256.90625 99.574219 C 254.90625 97 255.191406 93.285156 258.046875 91.285156 C 260.617188 88.996094 264.332031 89.570312 266.332031 92.140625 L 270.617188 97.859375 L 282.613281 88.425781 C 273.757812 88.425781 267.757812 88.425781 260.90625 86.996094 C 253.191406 85.566406 245.195312 82.996094 231.199219 77.566406 C 214.917969 71.277344 210.0625 89.570312 208.636719 96.714844 C 211.492188 99.574219 214.0625 102.429688 216.0625 105.289062 C 221.488281 113.292969 223.773438 121.867188 223.203125 130.441406 C 223.203125 132.15625 222.917969 133.871094 222.632812 135.300781 L 238.625 122.722656 L 228.34375 109.574219 C 226.34375 107.003906 226.628906 103.289062 229.484375 101.289062 C 232.058594 99 235.769531 99.574219 237.769531 102.144531 Z M 248.335938 115.292969 " fill-opacity="1" fill-rule="evenodd"/><path fill="#cfac8b" d="M 254.050781 272.773438 C 242.910156 276.203125 234.34375 279.917969 227.773438 283.632812 C 202.351562 297.355469 170.363281 297.355469 144.941406 283.632812 C 138.375 279.917969 129.804688 276.203125 118.664062 272.773438 C 99.8125 267.34375 84.105469 265.628906 64.683594 265.914062 C 65.253906 269.628906 66.683594 274.773438 71.253906 280.492188 C 78.964844 290.496094 95.246094 289.636719 109.8125 289.066406 L 111.238281 289.066406 C 114.667969 288.777344 117.523438 291.351562 117.523438 294.78125 C 117.808594 297.925781 115.238281 300.785156 111.808594 301.070312 C 105.242188 301.355469 98.671875 301.640625 92.101562 301.355469 C 94.957031 313.074219 94.671875 319.648438 104.382812 323.078125 C 128.375 329.648438 157.222656 332.792969 186.359375 332.792969 C 215.492188 332.792969 244.910156 329.648438 268.617188 323.078125 C 278.042969 320.503906 278.042969 312.214844 280.613281 301.355469 C 274.042969 301.640625 267.472656 301.355469 260.90625 301.070312 C 257.476562 300.785156 254.90625 297.925781 255.191406 294.78125 C 255.191406 291.351562 258.046875 288.777344 261.476562 289.066406 L 262.902344 289.066406 C 277.46875 289.636719 293.75 290.496094 301.460938 280.492188 C 306.03125 274.773438 307.460938 269.628906 308.03125 265.914062 C 288.609375 265.628906 272.902344 267.34375 254.050781 272.773438 Z M 227.773438 310.785156 C 202.351562 324.792969 170.363281 324.792969 144.941406 310.785156 C 141.800781 309.359375 140.945312 305.640625 142.371094 302.785156 C 144.085938 299.640625 147.796875 298.78125 150.65625 300.210938 C 172.363281 312.214844 200.351562 312.214844 222.058594 300.210938 C 224.917969 298.78125 228.628906 299.640625 230.34375 302.785156 C 231.769531 305.640625 230.914062 309.359375 227.773438 310.785156 Z M 227.773438 310.785156 " fill-opacity="1" fill-rule="evenodd"/><path fill="#a6795d" d="M 186.359375 293.925781 C 172.078125 293.925781 157.511719 290.496094 144.941406 283.632812 C 138.375 279.917969 129.804688 276.203125 118.664062 272.773438 C 101.8125 267.914062 87.53125 265.914062 70.964844 265.914062 C 70.964844 265.914062 72.964844 287.351562 92.960938 289.351562 C 98.386719 289.636719 104.097656 289.351562 109.8125 289.066406 L 111.238281 289.066406 C 114.667969 288.777344 117.523438 291.351562 117.523438 294.78125 C 117.808594 297.925781 115.238281 300.785156 111.808594 301.070312 C 105.242188 301.355469 98.671875 301.640625 92.101562 301.355469 C 94.101562 310.5 94.671875 316.503906 99.242188 320.21875 C 90.675781 296.210938 146.085938 311.929688 155.796875 315.644531 C 156.082031 315.929688 156.652344 316.21875 156.9375 316.21875 C 152.941406 314.789062 148.65625 313.074219 144.941406 310.785156 C 141.800781 309.359375 140.945312 305.640625 142.371094 302.785156 C 144.085938 299.640625 147.796875 298.78125 150.65625 300.210938 C 178.644531 307.644531 194.070312 307.644531 222.058594 300.210938 C 224.917969 298.78125 228.628906 299.640625 230.34375 302.785156 C 231.769531 305.640625 230.914062 309.359375 227.773438 310.785156 C 224.058594 313.074219 219.773438 314.789062 215.777344 316.21875 C 216.0625 316.21875 216.632812 315.929688 216.917969 315.644531 C 226.628906 311.929688 282.039062 296.210938 273.472656 320.21875 C 278.042969 316.503906 278.613281 310.5 280.613281 301.355469 C 274.042969 301.640625 267.472656 301.355469 260.90625 301.070312 C 257.476562 300.785156 254.90625 297.925781 255.191406 294.78125 C 255.191406 291.351562 258.046875 288.777344 261.476562 289.066406 L 262.902344 289.066406 C 268.617188 289.351562 274.328125 289.636719 279.753906 289.351562 C 299.75 287.351562 301.75 265.914062 301.75 265.914062 C 285.183594 265.914062 270.902344 267.914062 254.050781 272.773438 C 242.910156 276.203125 234.339844 279.917969 227.773438 283.632812 C 215.207031 290.496094 200.636719 293.925781 186.359375 293.925781 Z M 186.359375 293.925781 " fill-opacity="1" fill-rule="evenodd"/><path fill="#d9d3d0" d="M 105.242188 246.765625 C 96.386719 250.195312 84.390625 252.765625 74.679688 253.339844 C 64.96875 254.195312 56.398438 254.195312 46.6875 253.054688 C 44.691406 252.765625 42.691406 252.480469 40.691406 252.195312 C 76.964844 253.910156 80.964844 237.90625 51.257812 222.757812 C 51.257812 222.472656 51.257812 221.898438 50.972656 221.613281 C 49.832031 218.46875 46.6875 216.753906 43.546875 217.613281 C 41.261719 218.46875 38.976562 219.328125 36.40625 219.898438 C 36.40625 219.898438 39.261719 201.320312 49.832031 195.890625 C 53.542969 208.464844 62.96875 225.902344 88.390625 239.335938 C 93.816406 242.191406 99.527344 244.480469 105.242188 246.765625 Z M 105.242188 246.765625 " fill-opacity="1" fill-rule="evenodd"/><path fill="#bd9c79" d="M 277.757812 209.894531 C 277.757812 210.234375 277.722656 210.566406 277.65625 210.898438 C 277.589844 211.230469 277.492188 211.550781 277.363281 211.863281 C 277.234375 212.175781 277.078125 212.472656 276.890625 212.753906 C 276.703125 213.035156 276.488281 213.292969 276.25 213.535156 C 276.011719 213.773438 275.75 213.984375 275.472656 214.171875 C 275.191406 214.359375 274.894531 214.519531 274.582031 214.648438 C 274.269531 214.777344 273.949219 214.875 273.617188 214.941406 C 273.285156 215.007812 272.953125 215.039062 272.613281 215.039062 C 272.277344 215.039062 271.941406 215.007812 271.613281 214.941406 C 271.28125 214.875 270.960938 214.777344 270.648438 214.648438 C 270.335938 214.519531 270.039062 214.359375 269.757812 214.171875 C 269.476562 213.984375 269.21875 213.773438 268.980469 213.535156 C 268.742188 213.292969 268.527344 213.035156 268.339844 212.753906 C 268.152344 212.472656 267.996094 212.175781 267.863281 211.863281 C 267.734375 211.550781 267.636719 211.230469 267.574219 210.898438 C 267.507812 210.566406 267.472656 210.234375 267.472656 209.894531 C 267.472656 209.558594 267.507812 209.222656 267.574219 208.890625 C 267.636719 208.558594 267.734375 208.238281 267.863281 207.925781 C 267.996094 207.613281 268.152344 207.316406 268.339844 207.039062 C 268.527344 206.757812 268.742188 206.496094 268.980469 206.257812 C 269.21875 206.019531 269.476562 205.804688 269.757812 205.617188 C 270.039062 205.429688 270.335938 205.273438 270.648438 205.140625 C 270.960938 205.011719 271.28125 204.914062 271.613281 204.851562 C 271.941406 204.785156 272.277344 204.75 272.613281 204.75 C 272.953125 204.75 273.285156 204.785156 273.617188 204.851562 C 273.949219 204.914062 274.269531 205.011719 274.582031 205.140625 C 274.894531 205.273438 275.191406 205.429688 275.472656 205.617188 C 275.75 205.804688 276.011719 206.019531 276.25 206.257812 C 276.488281 206.496094 276.703125 206.757812 276.890625 207.039062 C 277.078125 207.316406 277.234375 207.613281 277.363281 207.925781 C 277.492188 208.238281 277.589844 208.558594 277.65625 208.890625 C 277.722656 209.222656 277.757812 209.558594 277.757812 209.894531 Z M 277.757812 209.894531 " fill-opacity="1" fill-rule="nonzero"/><path fill="#bd9c79" d="M 267.1875 201.894531 C 267.1875 202.308594 267.109375 202.710938 266.949219 203.097656 C 266.789062 203.480469 266.5625 203.820312 266.269531 204.117188 C 265.972656 204.410156 265.632812 204.636719 265.25 204.796875 C 264.863281 204.957031 264.464844 205.035156 264.046875 205.035156 C 263.628906 205.035156 263.230469 204.957031 262.84375 204.796875 C 262.460938 204.636719 262.121094 204.410156 261.824219 204.117188 C 261.53125 203.820312 261.304688 203.480469 261.144531 203.097656 C 260.984375 202.710938 260.90625 202.308594 260.90625 201.894531 C 260.90625 201.476562 260.984375 201.074219 261.144531 200.691406 C 261.304688 200.304688 261.53125 199.964844 261.824219 199.667969 C 262.121094 199.375 262.460938 199.148438 262.84375 198.988281 C 263.230469 198.828125 263.628906 198.75 264.046875 198.75 C 264.464844 198.75 264.863281 198.828125 265.25 198.988281 C 265.632812 199.148438 265.972656 199.375 266.269531 199.667969 C 266.5625 199.964844 266.789062 200.304688 266.949219 200.691406 C 267.109375 201.074219 267.1875 201.476562 267.1875 201.894531 Z M 267.1875 201.894531 " fill-opacity="1" fill-rule="nonzero"/><path fill="#d9d3d0" d="M 212.0625 259.054688 C 225.488281 257.910156 238.625 255.339844 251.195312 251.910156 C 254.621094 254.195312 258.90625 256.484375 263.476562 258.199219 C 250.621094 259.339844 237.484375 263.054688 225.488281 268.199219 C 229.484375 262.484375 224.34375 259.339844 212.0625 259.054688 Z M 212.0625 259.054688 " fill-opacity="1" fill-rule="evenodd"/><path fill="#bd9c79" d="M 115.238281 215.613281 C 115.238281 215.949219 115.203125 216.285156 115.140625 216.617188 C 115.074219 216.945312 114.976562 217.269531 114.847656 217.582031 C 114.71875 217.890625 114.558594 218.1875 114.371094 218.46875 C 114.183594 218.75 113.972656 219.011719 113.730469 219.25 C 113.492188 219.488281 113.234375 219.703125 112.953125 219.890625 C 112.671875 220.078125 112.375 220.234375 112.0625 220.363281 C 111.753906 220.492188 111.429688 220.589844 111.101562 220.65625 C 110.769531 220.722656 110.433594 220.757812 110.097656 220.757812 C 109.757812 220.757812 109.425781 220.722656 109.09375 220.65625 C 108.761719 220.589844 108.441406 220.492188 108.128906 220.363281 C 107.816406 220.234375 107.519531 220.078125 107.242188 219.890625 C 106.960938 219.703125 106.699219 219.488281 106.460938 219.25 C 106.222656 219.011719 106.007812 218.75 105.820312 218.46875 C 105.632812 218.1875 105.476562 217.890625 105.347656 217.582031 C 105.21875 217.269531 105.121094 216.945312 105.054688 216.617188 C 104.988281 216.285156 104.957031 215.949219 104.957031 215.613281 C 104.957031 215.273438 104.988281 214.9375 105.054688 214.609375 C 105.121094 214.277344 105.21875 213.953125 105.347656 213.644531 C 105.476562 213.332031 105.632812 213.035156 105.820312 212.753906 C 106.007812 212.472656 106.222656 212.210938 106.460938 211.972656 C 106.699219 211.734375 106.960938 211.523438 107.242188 211.335938 C 107.519531 211.144531 107.816406 210.988281 108.128906 210.859375 C 108.441406 210.730469 108.761719 210.632812 109.09375 210.566406 C 109.425781 210.5 109.757812 210.46875 110.097656 210.46875 C 110.433594 210.46875 110.769531 210.5 111.101562 210.566406 C 111.429688 210.632812 111.753906 210.730469 112.0625 210.859375 C 112.375 210.988281 112.671875 211.144531 112.953125 211.335938 C 113.234375 211.523438 113.492188 211.734375 113.730469 211.972656 C 113.972656 212.210938 114.183594 212.472656 114.371094 212.753906 C 114.558594 213.035156 114.71875 213.332031 114.847656 213.644531 C 114.976562 213.953125 115.074219 214.277344 115.140625 214.609375 C 115.203125 214.9375 115.238281 215.273438 115.238281 215.613281 Z M 115.238281 215.613281 " fill-opacity="1" fill-rule="nonzero"/><path fill="#bd9c79" d="M 118.09375 205.324219 C 118.09375 205.738281 118.015625 206.140625 117.855469 206.527344 C 117.695312 206.910156 117.46875 207.25 117.175781 207.546875 C 116.878906 207.839844 116.539062 208.066406 116.15625 208.226562 C 115.769531 208.386719 115.367188 208.464844 114.953125 208.464844 C 114.535156 208.464844 114.136719 208.386719 113.75 208.226562 C 113.363281 208.066406 113.023438 207.839844 112.730469 207.546875 C 112.4375 207.25 112.210938 206.910156 112.050781 206.527344 C 111.890625 206.140625 111.808594 205.738281 111.808594 205.324219 C 111.808594 204.90625 111.890625 204.503906 112.050781 204.121094 C 112.210938 203.734375 112.4375 203.394531 112.730469 203.097656 C 113.023438 202.804688 113.363281 202.578125 113.75 202.417969 C 114.136719 202.257812 114.535156 202.179688 114.953125 202.179688 C 115.367188 202.179688 115.769531 202.257812 116.15625 202.417969 C 116.539062 202.578125 116.878906 202.804688 117.175781 203.097656 C 117.46875 203.394531 117.695312 203.734375 117.855469 204.121094 C 118.015625 204.503906 118.09375 204.90625 118.09375 205.324219 Z M 118.09375 205.324219 " fill-opacity="1" fill-rule="nonzero"/><path fill="#bd9c79" d="M 168.078125 224.472656 C 168.078125 224.808594 168.042969 225.144531 167.980469 225.476562 C 167.914062 225.808594 167.816406 226.128906 167.6875 226.441406 C 167.558594 226.753906 167.398438 227.050781 167.210938 227.328125 C 167.023438 227.609375 166.8125 227.871094 166.570312 228.109375 C 166.332031 228.347656 166.074219 228.5625 165.792969 228.75 C 165.511719 228.9375 165.214844 229.09375 164.902344 229.226562 C 164.59375 229.355469 164.269531 229.453125 163.941406 229.519531 C 163.609375 229.582031 163.273438 229.617188 162.9375 229.617188 C 162.597656 229.617188 162.265625 229.582031 161.933594 229.519531 C 161.601562 229.453125 161.28125 229.355469 160.96875 229.226562 C 160.65625 229.09375 160.359375 228.9375 160.082031 228.75 C 159.800781 228.5625 159.539062 228.347656 159.300781 228.109375 C 159.0625 227.871094 158.847656 227.609375 158.660156 227.328125 C 158.472656 227.050781 158.316406 226.753906 158.1875 226.441406 C 158.058594 226.128906 157.960938 225.808594 157.894531 225.476562 C 157.828125 225.144531 157.796875 224.808594 157.796875 224.472656 C 157.796875 224.132812 157.828125 223.800781 157.894531 223.46875 C 157.960938 223.136719 158.058594 222.816406 158.1875 222.503906 C 158.316406 222.191406 158.472656 221.894531 158.660156 221.613281 C 158.847656 221.332031 159.0625 221.074219 159.300781 220.835938 C 159.539062 220.59375 159.800781 220.382812 160.082031 220.195312 C 160.359375 220.007812 160.65625 219.847656 160.96875 219.71875 C 161.28125 219.589844 161.601562 219.492188 161.933594 219.425781 C 162.265625 219.359375 162.597656 219.328125 162.9375 219.328125 C 163.273438 219.328125 163.609375 219.359375 163.941406 219.425781 C 164.269531 219.492188 164.59375 219.589844 164.902344 219.71875 C 165.214844 219.847656 165.511719 220.007812 165.792969 220.195312 C 166.074219 220.382812 166.332031 220.59375 166.570312 220.835938 C 166.8125 221.074219 167.023438 221.332031 167.210938 221.613281 C 167.398438 221.894531 167.558594 222.191406 167.6875 222.503906 C 167.816406 222.816406 167.914062 223.136719 167.980469 223.46875 C 168.042969 223.800781 168.078125 224.132812 168.078125 224.472656 Z M 168.078125 224.472656 " fill-opacity="1" fill-rule="nonzero"/><path fill="#bd9c79" d="M 171.21875 214.183594 C 171.21875 214.597656 171.140625 215 170.980469 215.386719 C 170.820312 215.769531 170.59375 216.109375 170.300781 216.40625 C 170.003906 216.699219 169.664062 216.925781 169.28125 217.085938 C 168.894531 217.246094 168.496094 217.328125 168.078125 217.328125 C 167.660156 217.328125 167.261719 217.246094 166.875 217.085938 C 166.492188 216.925781 166.152344 216.699219 165.855469 216.40625 C 165.5625 216.109375 165.335938 215.769531 165.175781 215.386719 C 165.015625 215 164.9375 214.597656 164.9375 214.183594 C 164.9375 213.765625 165.015625 213.363281 165.175781 212.980469 C 165.335938 212.59375 165.5625 212.253906 165.855469 211.960938 C 166.152344 211.664062 166.492188 211.4375 166.875 211.277344 C 167.261719 211.117188 167.660156 211.039062 168.078125 211.039062 C 168.496094 211.039062 168.894531 211.117188 169.28125 211.277344 C 169.664062 211.4375 170.003906 211.664062 170.300781 211.960938 C 170.59375 212.253906 170.820312 212.59375 170.980469 212.980469 C 171.140625 213.363281 171.21875 213.765625 171.21875 214.183594 Z M 171.21875 214.183594 " fill-opacity="1" fill-rule="nonzero"/><path fill="#bd9c79" d="M 162.367188 174.167969 C 162.367188 174.507812 162.332031 174.839844 162.265625 175.171875 C 162.199219 175.503906 162.101562 175.824219 161.972656 176.136719 C 161.84375 176.449219 161.6875 176.746094 161.5 177.027344 C 161.3125 177.308594 161.097656 177.566406 160.859375 177.808594 C 160.621094 178.046875 160.359375 178.257812 160.082031 178.445312 C 159.800781 178.632812 159.503906 178.792969 159.191406 178.921875 C 158.878906 179.050781 158.558594 179.148438 158.226562 179.214844 C 157.894531 179.28125 157.5625 179.3125 157.222656 179.3125 C 156.886719 179.3125 156.550781 179.28125 156.222656 179.214844 C 155.890625 179.148438 155.570312 179.050781 155.257812 178.921875 C 154.945312 178.792969 154.648438 178.632812 154.367188 178.445312 C 154.085938 178.257812 153.828125 178.046875 153.589844 177.808594 C 153.351562 177.566406 153.136719 177.308594 152.949219 177.027344 C 152.761719 176.746094 152.605469 176.449219 152.472656 176.136719 C 152.34375 175.824219 152.246094 175.503906 152.183594 175.171875 C 152.117188 174.839844 152.082031 174.507812 152.082031 174.167969 C 152.082031 173.832031 152.117188 173.496094 152.183594 173.164062 C 152.246094 172.835938 152.34375 172.511719 152.472656 172.199219 C 152.605469 171.886719 152.761719 171.59375 152.949219 171.3125 C 153.136719 171.03125 153.351562 170.769531 153.589844 170.53125 C 153.828125 170.292969 154.085938 170.078125 154.367188 169.890625 C 154.648438 169.703125 154.945312 169.546875 155.257812 169.417969 C 155.570312 169.285156 155.890625 169.1875 156.222656 169.125 C 156.550781 169.058594 156.886719 169.023438 157.222656 169.023438 C 157.5625 169.023438 157.894531 169.058594 158.226562 169.125 C 158.558594 169.1875 158.878906 169.285156 159.191406 169.417969 C 159.503906 169.546875 159.800781 169.703125 160.082031 169.890625 C 160.359375 170.078125 160.621094 170.292969 160.859375 170.53125 C 161.097656 170.769531 161.3125 171.03125 161.5 171.3125 C 161.6875 171.59375 161.84375 171.886719 161.972656 172.199219 C 162.101562 172.511719 162.199219 172.835938 162.265625 173.164062 C 162.332031 173.496094 162.367188 173.832031 162.367188 174.167969 Z M 162.367188 174.167969 " fill-opacity="1" fill-rule="nonzero"/><path fill="#bd9c79" d="M 158.652344 163.878906 C 158.652344 164.296875 158.574219 164.699219 158.414062 165.082031 C 158.253906 165.46875 158.027344 165.808594 157.730469 166.101562 C 157.4375 166.398438 157.097656 166.625 156.710938 166.785156 C 156.328125 166.945312 155.925781 167.023438 155.511719 167.023438 C 155.09375 167.023438 154.691406 166.945312 154.308594 166.785156 C 153.921875 166.625 153.582031 166.398438 153.289062 166.101562 C 152.996094 165.808594 152.765625 165.46875 152.609375 165.082031 C 152.449219 164.699219 152.367188 164.296875 152.367188 163.878906 C 152.367188 163.464844 152.449219 163.0625 152.609375 162.675781 C 152.765625 162.292969 152.996094 161.953125 153.289062 161.65625 C 153.582031 161.363281 153.921875 161.136719 154.308594 160.976562 C 154.691406 160.816406 155.09375 160.734375 155.511719 160.734375 C 155.925781 160.734375 156.328125 160.816406 156.710938 160.976562 C 157.097656 161.136719 157.4375 161.363281 157.730469 161.65625 C 158.027344 161.953125 158.253906 162.292969 158.414062 162.675781 C 158.574219 163.0625 158.652344 163.464844 158.652344 163.878906 Z M 158.652344 163.878906 " fill-opacity="1" fill-rule="nonzero"/><path fill="#bd9c79" d="M 298.320312 98.429688 C 298.035156 103.574219 296.320312 110.433594 289.464844 115.863281 C 288.609375 116.722656 287.753906 117.292969 286.609375 118.148438 L 290.039062 122.4375 L 305.175781 110.433594 C 303.460938 105.859375 301.175781 101.574219 298.320312 98.429688 Z M 298.320312 98.429688 " fill-opacity="1" fill-rule="evenodd"/><path fill="#bd9c79" d="M 271.472656 124.4375 C 266.902344 125.582031 262.046875 126.4375 256.90625 126.152344 L 267.757812 140.15625 L 278.613281 131.582031 Z M 271.472656 124.4375 " fill-opacity="1" fill-rule="evenodd"/><path fill="#bd9c79" d="M 244.625 133.296875 L 216.632812 155.304688 C 218.917969 155.304688 220.917969 155.304688 223.203125 155.304688 C 230.628906 155.304688 239.484375 155.589844 249.765625 154.449219 L 258.332031 147.589844 Z M 244.625 133.296875 " fill-opacity="1" fill-rule="evenodd"/><path fill="#bd9c79" d="M 222.632812 135.300781 L 236.339844 124.722656 L 230.34375 118.722656 C 226.34375 116.148438 222.347656 113.292969 218.632812 109.574219 C 222.058594 116.433594 223.773438 123.292969 223.203125 130.441406 C 223.203125 132.15625 222.917969 133.871094 222.632812 135.300781 Z M 222.632812 135.300781 " fill-opacity="1" fill-rule="evenodd"/><path fill="#bd9c79" d="M 287.46875 139.871094 L 276.328125 148.730469 C 281.46875 147.304688 287.179688 145.589844 292.039062 144.730469 Z M 287.46875 139.871094 " fill-opacity="1" fill-rule="evenodd"/><path fill="#bd9c79" d="M 297.464844 131.871094 L 307.175781 144.160156 C 308.601562 144.445312 310.316406 145.015625 311.746094 145.589844 C 311.746094 145.589844 311.171875 134.726562 308.601562 123.007812 Z M 297.464844 131.871094 " fill-opacity="1" fill-rule="evenodd"/></svg>